<svg id="Capa_1" enable-background="new 0 0 511.261 511.261" height="512" viewBox="0 0 511.261 511.261" width="512" xmlns="http://www.w3.org/2000/svg"><path d="m370.253 69.831c0 5.523-4.477 10-10 10h-324.245c-8.284 0-15-6.716-15-15v-35.831c0-16.016 12.984-29 29-29h349.242c-16.015 0-28.997 12.982-28.997 28.997z"/><path d="m475.253 453.333c-8.284 0-15-6.716-15-15v-5.343-29.657-31.165h15c8.284 0 15 6.716 15 15v16.165 35s-.033 1.424-.5 3.783c-1.679 6.45-7.525 11.217-14.5 11.217z"/><path d="m226.19 388.878c-8.379-12.648-13.274-27.796-13.274-44.071 0-44.12 35.888-80.015 80-80.015s80 35.895 80 80.015c0 16.276-4.896 31.423-13.275 44.071v93.118l99.607.004c-16.016-.008-28.995-12.994-28.995-29.01l.042-412.075c0-8.525-7.111-15.389-15.725-14.983-8.068.38-14.275 7.33-14.275 15.407v2.839c-.015.274-.042.544-.042.822v49.831c0 8.284-6.716 15-15 15h-304.245v332.156c0 22.091 17.908 39.999 39.998 40l105.183.004v-93.113z"/><path d="m292.916 424.82c-13.235 0-25.719-3.251-36.726-8.966v95.406l36.726-29.52 36.726 29.52v-95.406c-11.008 5.716-23.491 8.966-36.726 8.966z"/><ellipse cx="292.916" cy="344.806" rx="50" ry="50.014"/></svg>